<svg xmlns="http://www.w3.org/2000/svg" version="1.1" xmlns:xlink="http://www.w3.org/1999/xlink" width="355px" height="355px"><svg width="355px" height="355px" viewBox="0 0 355 355" version="1.1" xmlns="http://www.w3.org/2000/svg" xmlns:xlink="http://www.w3.org/1999/xlink">
    <title>iconfav</title>
    <defs>
        <radialGradient cx="50%" cy="50%" fx="50%" fy="50%" r="936.914062%" gradientTransform="translate(0.5, 0.5), scale(0.0533, 1), translate(-0.5, -0.5)" id="SvgjsRadialGradient1101">
            <stop stop-color="#205132" offset="0%"></stop>
            <stop stop-color="#000000" stop-opacity="0" offset="100%"></stop>
        </radialGradient>
        <linearGradient x1="50.0438212%" y1="-11.0680136%" x2="50.0438212%" y2="138.163164%" id="SvgjsLinearGradient1100">
            <stop stop-color="#589CFF" offset="0%"></stop>
            <stop stop-color="#0044A9" offset="100%"></stop>
        </linearGradient>
        <linearGradient x1="50%" y1="-0.00523031345%" x2="50%" y2="99.9963517%" id="SvgjsLinearGradient1099">
            <stop stop-color="#ECFF86" offset="0%"></stop>
            <stop stop-color="#FFBF00" offset="100%"></stop>
        </linearGradient>
        <linearGradient x1="50.0438212%" y1="-11.0702239%" x2="50.0438212%" y2="138.158029%" id="SvgjsLinearGradient1098">
            <stop stop-color="#589CFF" offset="0%"></stop>
            <stop stop-color="#0044A9" offset="100%"></stop>
        </linearGradient>
        <linearGradient x1="50%" y1="-0.00523031345%" x2="50%" y2="60.7580462%" id="SvgjsLinearGradient1097">
            <stop stop-color="#ECFF86" offset="0%"></stop>
            <stop stop-color="#FFBF00" offset="100%"></stop>
        </linearGradient>
        <linearGradient x1="50.3068629%" y1="-11.077045%" x2="50.3068629%" y2="138.133388%" id="SvgjsLinearGradient1096">
            <stop stop-color="#589CFF" offset="0%"></stop>
            <stop stop-color="#0044A9" offset="100%"></stop>
        </linearGradient>
        <linearGradient x1="50%" y1="-0.00523031345%" x2="50%" y2="65.8229604%" id="SvgjsLinearGradient1095">
            <stop stop-color="#ECFF86" offset="0%"></stop>
            <stop stop-color="#FFBF00" offset="100%"></stop>
        </linearGradient>
        <linearGradient x1="50%" y1="-0.00523031345%" x2="50%" y2="47.5764867%" id="SvgjsLinearGradient1094">
            <stop stop-color="#ECFF86" offset="0%"></stop>
            <stop stop-color="#FFBF00" offset="100%"></stop>
        </linearGradient>
        <linearGradient x1="49.9561788%" y1="-11.0702239%" x2="49.9561788%" y2="138.158029%" id="SvgjsLinearGradient1093">
            <stop stop-color="#589CFF" offset="0%"></stop>
            <stop stop-color="#0044A9" offset="100%"></stop>
        </linearGradient>
        <linearGradient x1="50%" y1="-0.00523031345%" x2="50%" y2="31.5294726%" id="SvgjsLinearGradient1092">
            <stop stop-color="#ECFF86" offset="0%"></stop>
            <stop stop-color="#FFBF00" offset="100%"></stop>
        </linearGradient>
        <linearGradient x1="49.9561788%" y1="-11.0770794%" x2="49.9561788%" y2="138.157507%" id="SvgjsLinearGradient1091">
            <stop stop-color="#589CFF" offset="0%"></stop>
            <stop stop-color="#0044A9" offset="100%"></stop>
        </linearGradient>
        <linearGradient x1="50%" y1="-0.00523031345%" x2="50%" y2="99.9963517%" id="SvgjsLinearGradient1090">
            <stop stop-color="#ECFF86" offset="0%"></stop>
            <stop stop-color="#FFBF00" offset="100%"></stop>
        </linearGradient>
        <linearGradient x1="-0.000790998884%" y1="49.9955607%" x2="100.000791%" y2="49.9955607%" id="SvgjsLinearGradient1089">
            <stop stop-color="#ECFF86" offset="0%"></stop>
            <stop stop-color="#FFBF00" offset="100%"></stop>
        </linearGradient>
        <linearGradient x1="4.44338912e-15%" y1="50%" x2="100%" y2="50%" id="SvgjsLinearGradient1088">
            <stop stop-color="#F6FFCD" offset="0%"></stop>
            <stop stop-color="#FFFFFF" offset="100%"></stop>
        </linearGradient>
    </defs>
    <g id="SvgjsG1087" stroke="none" stroke-width="1" fill="none" fill-rule="evenodd">
        <g id="SvgjsG1086" transform="translate(50.1228, 0.4934)" fill-rule="nonzero">
            <ellipse id="SvgjsEllipse1085" fill="url(#radialGradient-1)" opacity="0.326497396" cx="127" cy="350.5" rx="75" ry="4"></ellipse>
            <g id="SvgjsG1084">
                <g id="SvgjsG1083" transform="translate(0, 20.0093)">
                    <g id="SvgjsG1082" fill="url(#linearGradient-2)">
                        <path d="M12.4053383,156.837406 L12.4053383,156.837406 C9.1172374,156.843137 5.96183282,155.540985 3.63475397,153.217982 C1.30767513,150.894979 0,147.741861 0,144.453755 L0,12.4053383 C0,5.5540591 5.55405914,3.55271368e-15 12.4053383,3.55271368e-15 L12.4053383,3.55271368e-15 C19.2481315,0.0119839 24.788951,5.5625346 24.788951,12.4053383 L24.788951,144.453755 C24.788951,147.738094 23.4842527,150.887914 21.1618748,153.210292 C18.8394969,155.53267 15.6896766,156.837406 12.4053383,156.837406 Z" id="SvgjsPath1081"></path>
                    </g>
                    <g id="SvgjsG1080" fill="url(#linearGradient-3)">
                        <path d="M12.4053383,156.837406 L12.4053383,156.837406 C9.1172374,156.843137 5.96183282,155.540985 3.63475397,153.217982 C1.30767513,150.894979 0,147.741861 0,144.453755 L0,12.4053383 C0,5.5540591 5.55405914,3.55271368e-15 12.4053383,3.55271368e-15 L12.4053383,3.55271368e-15 C19.2481315,0.0119839 24.788951,5.5625346 24.788951,12.4053383 L24.788951,144.453755 C24.788951,147.738094 23.4842527,150.887914 21.1618748,153.210292 C18.8394969,155.53267 15.6896766,156.837406 12.4053383,156.837406 Z" id="SvgjsPath1079"></path>
                    </g>
                </g>
                <g id="SvgjsG1078" transform="translate(45.9714, 0)">
                    <g id="SvgjsG1077" fill="url(#linearGradient-4)">
                        <rect id="SvgjsRect1076" x="0" y="0" width="24.788951" height="212.541899" rx="12.3944755"></rect>
                    </g>
                    <g id="SvgjsG1075" fill="url(#linearGradient-5)">
                        <rect id="SvgjsRect1074" x="0" y="0" width="24.788951" height="212.541899" rx="12.3944755"></rect>
                    </g>
                </g>
                <g id="SvgjsG1073" transform="translate(91.8776, 24.6368)">
                    <g id="SvgjsG1072" fill="url(#linearGradient-6)">
                        <path d="M12.4054901,92.1819128 L12.4054901,92.1819128 C5.55421091,92.1819128 0,86.6278538 0,79.7765748 L0,12.4271022 C-0.0114169943,9.13147359 1.29115801,5.96717329 3.61949401,3.63475969 C5.94783001,1.30234599 9.10984611,-0.00576380749 12.4054901,-3.55271368e-15 L12.4054901,-3.55271368e-15 C15.6935961,-3.55271368e-15 18.8467131,1.30771339 21.1697171,3.63479229 C23.4927201,5.96187109 24.7948711,9.11727569 24.7891411,12.4053766 L24.7891411,79.7548488 C24.7948701,83.0449508 23.4934101,86.2025888 21.1710311,88.5331168 C18.8486521,90.8636448 15.6955921,92.1761558 12.4054901,92.1819128 Z" id="SvgjsPath1071"></path>
                    </g>
                    <g id="SvgjsG1070" fill="url(#linearGradient-7)">
                        <path d="M12.4054901,92.1819128 L12.4054901,92.1819128 C5.55421091,92.1819128 0,86.6278538 0,79.7765748 L0,12.4271022 C-0.0114169943,9.13147359 1.29115801,5.96717329 3.61949401,3.63475969 C5.94783001,1.30234599 9.10984611,-0.00576380749 12.4054901,-3.55271368e-15 L12.4054901,-3.55271368e-15 C15.6935961,-3.55271368e-15 18.8467131,1.30771339 21.1697171,3.63479229 C23.4927201,5.96187109 24.7948711,9.11727569 24.7891411,12.4053766 L24.7891411,79.7548488 C24.7948701,83.0449508 23.4934101,86.2025888 21.1710311,88.5331168 C18.8486521,90.8636448 15.6955921,92.1761558 12.4054901,92.1819128 Z" id="SvgjsPath1069"></path>
                    </g>
                </g>
                <g id="SvgjsG1068" transform="translate(137.9143, 10.5369)">
                    <g id="SvgjsG1067" fill="url(#linearGradient-4)">
                        <rect id="SvgjsRect1066" x="0" y="1.77635684e-15" width="24.788951" height="212.541899" rx="12.3944755"></rect>
                    </g>
                    <g id="SvgjsG1065" fill="url(#linearGradient-8)">
                        <rect id="SvgjsRect1064" x="0" y="1.77635684e-15" width="24.788951" height="212.541899" rx="12.3944755"></rect>
                    </g>
                </g>
                <g id="SvgjsG1063" transform="translate(183.8858, 35.6952)">
                    <g id="SvgjsG1062" fill="url(#linearGradient-9)">
                        <rect id="SvgjsRect1061" x="0" y="0" width="24.788951" height="212.541899" rx="12.3944755"></rect>
                    </g>
                    <g id="SvgjsG1060" fill="url(#linearGradient-10)">
                        <rect id="SvgjsRect1059" x="0" y="0" width="24.788951" height="212.541899" rx="12.3944755"></rect>
                    </g>
                </g>
                <g id="SvgjsG1058" transform="translate(229.8572, 14.4041)">
                    <g id="SvgjsG1057" fill="url(#linearGradient-11)">
                        <path d="M12.383612,156.120498 L12.383612,156.120498 C5.544332,156.120498 0,150.576128 0,143.736847 L0,12.3836508 C0,5.54437036 5.544332,0 12.383612,0 L12.383612,0 C15.671713,-0.00573054095 18.827118,1.29642076 21.154197,3.61942416 C23.481275,5.94242756 24.78895,9.09554476 24.78895,12.3836508 L24.78895,143.736847 C24.78895,147.024953 23.481275,150.17807 21.154197,152.501074 C18.827118,154.824077 15.671713,156.126229 12.383612,156.120498 Z" id="SvgjsPath1056"></path>
                    </g>
                    <g id="SvgjsG1055" fill="url(#linearGradient-12)">
                        <path d="M12.383612,156.120498 L12.383612,156.120498 C5.544332,156.120498 0,150.576128 0,143.736847 L0,12.3836508 C0,5.54437036 5.544332,0 12.383612,0 L12.383612,0 C15.671713,-0.00573054095 18.827118,1.29642076 21.154197,3.61942416 C23.481275,5.94242756 24.78895,9.09554476 24.78895,12.3836508 L24.78895,143.736847 C24.78895,147.024953 23.481275,150.17807 21.154197,152.501074 C18.827118,154.824077 15.671713,156.126229 12.383612,156.120498 Z" id="SvgjsPath1054"></path>
                    </g>
                </g>
                <path d="M217.386716,259.925512 L127.333954,350 L37.2594662,259.925512 C-40.5183116,182.147734 11.1887027,47.4270639 121.142148,44.2116698 C125.270019,44.1030416 129.376164,44.1030416 133.504035,44.2116698 C243.45748,47.4270639 295.164494,182.147734 217.386716,259.925512 Z" id="SvgjsPath1053" fill="url(#linearGradient-13)"></path>
                <circle id="SvgjsCircle1052" fill="url(#linearGradient-14)" cx="127.343353" cy="166.877774" r="105"></circle>
                <path d="M86.6229413,234.102564 L86.6229413,167.996362 L86.6229413,167.996362 L74.6582138,167.996362 C71.4864517,167.996362 68.9152305,165.425141 68.9152305,162.253378 C68.9152305,159.081616 71.4864517,156.510395 74.6582138,156.510395 L86.6229413,156.510395 L86.6229413,156.510395 L86.6229413,146.14501 L74.6582138,146.14501 C71.4864517,146.14501 68.9152305,143.573789 68.9152305,140.402027 C68.9152305,137.230265 71.4864517,134.659044 74.6582138,134.659044 L86.6229413,134.659044 L86.6229413,134.659044 L86.6229413,120.897436 C86.6229413,112.613165 93.33867,105.897436 101.622941,105.897436 L126.352932,105.897436 L126.352932,105.897436 C140.974527,105.897436 151.581177,108.014091 158.172879,112.247401 C164.764582,116.480711 169.079151,123.951259 171.116587,134.659044 L180.115048,134.659044 C183.28681,134.659044 185.858031,137.230265 185.858031,140.402027 C185.858031,143.573789 183.28681,146.14501 180.115048,146.14501 L171.386247,146.14501 L171.386247,146.14501 C171.386247,147.701374 170.996738,151.156503 170.217718,156.510395 L180.115048,156.510395 C183.28681,156.510395 185.858031,159.081616 185.858031,162.253378 C185.858031,165.425141 183.28681,167.996362 180.115048,167.996362 L167.521112,167.996362 L167.521112,167.996362 C158.7122,187.233021 142.412717,196.851351 118.622662,196.851351 L113.229451,196.851351 L113.229451,234.102564 C113.229451,239.625412 108.752298,244.102564 103.229451,244.102564 L96.6229413,244.102564 C91.1000938,244.102564 86.6229413,239.625412 86.6229413,234.102564 Z M113.217952,157.496015 L145.634405,157.496015 C146.171694,154.431175 146.440338,151.717515 146.440338,149.355034 L146.35079,146.864851 L113.217952,146.864851 L113.217952,157.496015 Z M142.350414,133.403642 C140.08637,128.920986 137.375475,126.028461 134.217729,124.726068 C131.059983,123.423675 125.101972,122.772478 116.343696,122.772478 L111.785818,122.772478 L111.785818,133.403642 L142.350414,133.403642 Z M113.33935,177.577603 L117.144824,177.577603 C128.017605,177.577603 136.051382,174.033881 141.246155,166.946439 L113.33935,166.946439 L113.33935,177.577603 Z" id="SvgjsPath1051" fill="#FFCD37"></path>
            </g>
        </g>
    </g>
</svg><style>@media (prefers-color-scheme: light) { :root { filter: none; } }
@media (prefers-color-scheme: dark) { :root { filter: none; } }
</style></svg>