<?xml version="1.0" encoding="UTF-8"?>
<svg width="100px" height="33px" viewBox="0 0 100 33" version="1.1" xmlns="http://www.w3.org/2000/svg" xmlns:xlink="http://www.w3.org/1999/xlink">
    <title>logo</title>
    <defs>
        <radialGradient cx="50%" cy="50%" fx="50%" fy="50%" r="948.584731%" gradientTransform="translate(0.5, 0.5), scale(0.0527, 1), translate(-0.5, -0.5)" id="radialGradient-1">
            <stop stop-color="#205132" offset="0%"></stop>
            <stop stop-color="#000000" stop-opacity="0" offset="100%"></stop>
        </radialGradient>
        <linearGradient x1="50.0438212%" y1="-11.0680136%" x2="50.0438212%" y2="138.163164%" id="linearGradient-2">
            <stop stop-color="#589CFF" offset="0%"></stop>
            <stop stop-color="#0044A9" offset="100%"></stop>
        </linearGradient>
        <linearGradient x1="50%" y1="-0.00523031345%" x2="50%" y2="99.9963517%" id="linearGradient-3">
            <stop stop-color="#ECFF86" offset="0%"></stop>
            <stop stop-color="#FFBF00" offset="100%"></stop>
        </linearGradient>
        <linearGradient x1="50.0438212%" y1="-11.0702239%" x2="50.0438212%" y2="138.158029%" id="linearGradient-4">
            <stop stop-color="#589CFF" offset="0%"></stop>
            <stop stop-color="#0044A9" offset="100%"></stop>
        </linearGradient>
        <linearGradient x1="50%" y1="-0.00523031345%" x2="50%" y2="60.7580462%" id="linearGradient-5">
            <stop stop-color="#ECFF86" offset="0%"></stop>
            <stop stop-color="#FFBF00" offset="100%"></stop>
        </linearGradient>
        <linearGradient x1="50.3068629%" y1="-11.077045%" x2="50.3068629%" y2="138.133388%" id="linearGradient-6">
            <stop stop-color="#589CFF" offset="0%"></stop>
            <stop stop-color="#0044A9" offset="100%"></stop>
        </linearGradient>
        <linearGradient x1="50%" y1="-0.00523031345%" x2="50%" y2="65.8229604%" id="linearGradient-7">
            <stop stop-color="#ECFF86" offset="0%"></stop>
            <stop stop-color="#FFBF00" offset="100%"></stop>
        </linearGradient>
        <linearGradient x1="50%" y1="-0.00523031345%" x2="50%" y2="47.5764867%" id="linearGradient-8">
            <stop stop-color="#ECFF86" offset="0%"></stop>
            <stop stop-color="#FFBF00" offset="100%"></stop>
        </linearGradient>
        <linearGradient x1="49.9561788%" y1="-11.0702239%" x2="49.9561788%" y2="138.158029%" id="linearGradient-9">
            <stop stop-color="#589CFF" offset="0%"></stop>
            <stop stop-color="#0044A9" offset="100%"></stop>
        </linearGradient>
        <linearGradient x1="50%" y1="-0.00523031345%" x2="50%" y2="31.5294726%" id="linearGradient-10">
            <stop stop-color="#ECFF86" offset="0%"></stop>
            <stop stop-color="#FFBF00" offset="100%"></stop>
        </linearGradient>
        <linearGradient x1="49.9561788%" y1="-11.0770794%" x2="49.9561788%" y2="138.157507%" id="linearGradient-11">
            <stop stop-color="#589CFF" offset="0%"></stop>
            <stop stop-color="#0044A9" offset="100%"></stop>
        </linearGradient>
        <linearGradient x1="50%" y1="-0.00523031345%" x2="50%" y2="99.9963517%" id="linearGradient-12">
            <stop stop-color="#ECFF86" offset="0%"></stop>
            <stop stop-color="#FFBF00" offset="100%"></stop>
        </linearGradient>
        <linearGradient x1="-0.000790998884%" y1="49.9955607%" x2="100.000791%" y2="49.9955607%" id="linearGradient-13">
            <stop stop-color="#ECFF86" offset="0%"></stop>
            <stop stop-color="#FFBF00" offset="100%"></stop>
        </linearGradient>
        <linearGradient x1="4.44338912e-15%" y1="50%" x2="100%" y2="50%" id="linearGradient-14">
            <stop stop-color="#F6FFCD" offset="0%"></stop>
            <stop stop-color="#FFFFFF" offset="100%"></stop>
        </linearGradient>
    </defs>
    <g id="logo" stroke="none" stroke-width="1" fill="none" fill-rule="evenodd">
        <g id="编组" transform="translate(4, 0)" fill-rule="nonzero">
            <ellipse id="椭圆形" fill="url(#radialGradient-1)" opacity="0.326497396" cx="11.9695492" cy="32.6276446" rx="7.06863141" ry="1"></ellipse>
            <g id="资源-1">
                <g id="路径" transform="translate(0, 1.8626)">
                    <g id="path-8-link" fill="url(#linearGradient-2)">
                        <path d="M1.16918352,14.5998149 L1.16918352,14.5998149 C0.859285209,14.6003484 0.561893316,14.4791326 0.342569814,14.2628869 C0.123246313,14.0466412 0,13.7531211 0,13.447035 L0,1.15479877 C0,0.517021016 0.523461292,3.30718058e-16 1.16918352,3.30718058e-16 L1.16918352,3.30718058e-16 C1.81410596,0.00111556756 2.33631943,0.517809991 2.33631943,1.15479877 L2.33631943,13.447035 C2.33631943,13.7527704 2.21335368,14.0459835 1.99447324,14.262171 C1.77559279,14.4783586 1.47872721,14.5998149 1.16918352,14.5998149 Z" id="path-8"></path>
                    </g>
                    <g id="path-8-link" fill="url(#linearGradient-3)">
                        <path d="M1.16918352,14.5998149 L1.16918352,14.5998149 C0.859285209,14.6003484 0.561893316,14.4791326 0.342569814,14.2628869 C0.123246313,14.0466412 0,13.7531211 0,13.447035 L0,1.15479877 C0,0.517021016 0.523461292,3.30718058e-16 1.16918352,3.30718058e-16 L1.16918352,3.30718058e-16 C1.81410596,0.00111556756 2.33631943,0.517809991 2.33631943,1.15479877 L2.33631943,13.447035 C2.33631943,13.7527704 2.21335368,14.0459835 1.99447324,14.262171 C1.77559279,14.4783586 1.47872721,14.5998149 1.16918352,14.5998149 Z" id="path-8"></path>
                    </g>
                </g>
                <g id="矩形" transform="translate(4.3327, 0)">
                    <g id="path-11-link" fill="url(#linearGradient-4)">
                        <rect id="path-11" x="0" y="0" width="2.33631943" height="19.7852826" rx="1.15378756"></rect>
                    </g>
                    <g id="path-11-link" fill="url(#linearGradient-5)">
                        <rect id="path-11" x="0" y="0" width="2.33631943" height="19.7852826" rx="1.15378756"></rect>
                    </g>
                </g>
                <g id="路径" transform="translate(8.6593, 2.2934)">
                    <g id="path-14-link" fill="url(#linearGradient-6)">
                        <path d="M1.16919783,8.58110895 L1.16919783,8.58110895 C0.523475595,8.58110895 0,8.06408794 0,7.42631021 L0,1.15682475 C-0.00107603366,0.850038444 0.1216896,0.555477345 0.341131587,0.338355627 C0.560573573,0.121233901 0.858588591,-0.000536546255 1.16919783,-3.30718058e-16 L1.16919783,-3.30718058e-16 C1.47909662,-3.30718058e-16 1.77627291,0.121733546 1.99521236,0.338358662 C2.21415172,0.554983769 2.3368774,0.848716778 2.33633735,1.15480233 L2.33633735,7.42428776 C2.3368773,7.73055959 2.21421675,8.02450051 1.99533621,8.2414467 C1.77645566,8.45839289 1.47928474,8.58057304 1.16919783,8.58110895 Z" id="path-14"></path>
                    </g>
                    <g id="path-14-link" fill="url(#linearGradient-7)">
                        <path d="M1.16919783,8.58110895 L1.16919783,8.58110895 C0.523475595,8.58110895 0,8.06408794 0,7.42631021 L0,1.15682475 C-0.00107603366,0.850038444 0.1216896,0.555477345 0.341131587,0.338355627 C0.560573573,0.121233901 0.858588591,-0.000536546255 1.16919783,-3.30718058e-16 L1.16919783,-3.30718058e-16 C1.47909662,-3.30718058e-16 1.77627291,0.121733546 1.99521236,0.338358662 C2.21415172,0.554983769 2.3368774,0.848716778 2.33633735,1.15480233 L2.33633735,7.42428776 C2.3368773,7.73055959 2.21421675,8.02450051 1.99533621,8.2414467 C1.77645566,8.45839289 1.47928474,8.58057304 1.16919783,8.58110895 Z" id="path-14"></path>
                    </g>
                </g>
                <g id="矩形" transform="translate(12.9982, 0.9809)">
                    <g id="path-16-link" fill="url(#linearGradient-4)">
                        <rect id="path-16" x="0" y="1.65359029e-16" width="2.33631943" height="19.7852826" rx="1.15378756"></rect>
                    </g>
                    <g id="path-16-link" fill="url(#linearGradient-8)">
                        <rect id="path-16" x="0" y="1.65359029e-16" width="2.33631943" height="19.7852826" rx="1.15378756"></rect>
                    </g>
                </g>
                <g id="矩形" transform="translate(17.3309, 3.3228)">
                    <g id="path-19-link" fill="url(#linearGradient-9)">
                        <rect id="path-19" x="0" y="0" width="2.33631943" height="19.7852826" rx="1.15378756"></rect>
                    </g>
                    <g id="path-19-link" fill="url(#linearGradient-10)">
                        <rect id="path-19" x="0" y="0" width="2.33631943" height="19.7852826" rx="1.15378756"></rect>
                    </g>
                </g>
                <g id="路径" transform="translate(21.6637, 1.3409)">
                    <g id="path-22-link" fill="url(#linearGradient-11)">
                        <path d="M1.16713585,14.5330788 L1.16713585,14.5330788 C0.522544524,14.5330788 0,14.0169598 0,13.3802989 L0,1.1527799 C0,0.516119103 0.522544524,0 1.16713585,0 L1.16713585,0 C1.47703417,-0.000533449511 1.7744261,0.120682327 1.99374962,0.33692806 C2.21307304,0.553173793 2.33631934,0.84669387 2.33631934,1.1527799 L2.33631934,13.3802989 C2.33631934,13.6863849 2.21307304,13.979905 1.99374962,14.1961508 C1.7744261,14.4123965 1.47703417,14.5336123 1.16713585,14.5330788 Z" id="path-22"></path>
                    </g>
                    <g id="path-22-link" fill="url(#linearGradient-12)">
                        <path d="M1.16713585,14.5330788 L1.16713585,14.5330788 C0.522544524,14.5330788 0,14.0169598 0,13.3802989 L0,1.1527799 C0,0.516119103 0.522544524,0 1.16713585,0 L1.16713585,0 C1.47703417,-0.000533449511 1.7744261,0.120682327 1.99374962,0.33692806 C2.21307304,0.553173793 2.33631934,0.84669387 2.33631934,1.1527799 L2.33631934,13.3802989 C2.33631934,13.6863849 2.21307304,13.979905 1.99374962,14.1961508 C1.7744261,14.4123965 1.47703417,14.5336123 1.16713585,14.5330788 Z" id="path-22"></path>
                    </g>
                </g>
                <path d="M20.4883542,24.196169 L12.0010238,32.5811001 L3.51164577,24.196169 C-3.8187868,16.9559245 1.05451754,4.4149312 11.4174559,4.11561383 C11.8065012,4.10550176 12.1934989,4.10550176 12.5825442,4.11561383 C22.9454825,4.4149312 27.8187868,16.9559245 20.4883542,24.196169 Z" id="路径" fill="url(#linearGradient-13)"></path>
                <ellipse id="椭圆形" fill="url(#linearGradient-14)" cx="12.0019097" cy="15.5344613" rx="9.89608397" ry="9.77433004"></ellipse>
                <path d="M8.16407525,21.7923402 L8.16407525,15.6385894 L8.16407525,15.6385894 L7.0364186,15.6385894 C6.73748504,15.6385894 6.4951515,15.3992374 6.4951515,15.1039816 C6.4951515,14.8087259 6.73748504,14.5693739 7.0364186,14.5693739 L8.16407525,14.5693739 L8.16407525,14.5693739 L8.16407525,13.604472 L7.0364186,13.604472 C6.73748504,13.604472 6.4951515,13.36512 6.4951515,13.0698643 C6.4951515,12.7746086 6.73748504,12.5352566 7.0364186,12.5352566 L8.16407525,12.5352566 L8.16407525,12.5352566 L8.16407525,11.2542042 C8.16407525,10.4830309 8.79702206,9.85787133 9.5778015,9.85787133 L11.908564,9.85787133 L11.908564,9.85787133 C13.2866263,9.85787133 14.2862862,10.0549083 14.9075437,10.4489823 C15.5288013,10.8430563 15.9354426,11.5384811 16.1274678,12.5352566 L16.9755585,12.5352566 C17.274492,12.5352566 17.5168255,12.7746086 17.5168255,13.0698643 C17.5168255,13.36512 17.274492,13.604472 16.9755585,13.604472 L16.1528828,13.604472 L16.1528828,13.604472 C16.1528828,13.7493522 16.1161722,14.0709862 16.0427508,14.5693739 L16.9755585,14.5693739 C17.274492,14.5693739 17.5168255,14.8087259 17.5168255,15.1039816 C17.5168255,15.3992374 17.274492,15.6385894 16.9755585,15.6385894 L15.7885999,15.6385894 L15.7885999,15.6385894 C14.9583739,17.429308 13.4221734,18.3246674 11.1799983,18.3246674 L10.6716967,18.3246674 L10.6716967,21.7923402 C10.6716967,22.3064558 10.2497321,22.7232288 9.72921253,22.7232288 L9.10655943,22.7232288 C8.58603979,22.7232288 8.16407525,22.3064558 8.16407525,21.7923402 Z M10.670613,14.6611241 L13.7258124,14.6611241 C13.776451,14.3758217 13.8017703,14.1232101 13.8017703,13.9032895 L13.7933305,13.6714812 L10.670613,13.6714812 L10.670613,14.6611241 Z M13.4163014,12.4183926 C13.2029189,12.0011073 12.9474213,11.7318455 12.6498087,11.6106072 C12.3521962,11.4893689 11.790663,11.4287497 10.9652094,11.4287497 L10.5356366,11.4287497 L10.5356366,12.4183926 L13.4163014,12.4183926 Z M10.6820545,16.5304962 L11.0407144,16.5304962 C12.0654568,16.5304962 12.8226276,16.2006152 13.3122268,15.5408533 L10.6820545,15.5408533 L10.6820545,16.5304962 Z" id="形状备份" fill="#FFCD37"></path>
            </g>
        </g>
        <g id="Vplus备份" transform="translate(31, 4)" fill="#27A91B" fill-rule="nonzero" font-family="Helvetica" font-size="20.8541667" font-weight="normal" stroke="#FFF29B" stroke-width="0.78203125">
            <text id="VPLUS">
                <tspan x="0" y="20">VPLUS</tspan>
            </text>
            <text id="VPLUS">
                <tspan x="0" y="20">VPLUS</tspan>
            </text>
        </g>
    </g>
</svg>