<?xml version="1.0" encoding="UTF-8"?>
<svg width="100px" height="33px" viewBox="0 0 100 33" version="1.1" xmlns="http://www.w3.org/2000/svg" xmlns:xlink="http://www.w3.org/1999/xlink">
    <title>logo-w</title>
    <defs>
        <radialGradient cx="50%" cy="50%" fx="50%" fy="50%" r="948.584731%" gradientTransform="translate(0.5, 0.5), scale(0.0527, 1), translate(-0.5, -0.5)" id="radialGradient-1">
            <stop stop-color="#205132" offset="0%"></stop>
            <stop stop-color="#000000" stop-opacity="0" offset="100%"></stop>
        </radialGradient>
    </defs>
    <g id="logo-w" stroke="none" stroke-width="1" fill="none" fill-rule="evenodd">
        <g id="编组" transform="translate(4, 0)" fill-rule="nonzero">
            <ellipse id="椭圆形" fill="url(#radialGradient-1)" opacity="0.326497396" cx="11.9695492" cy="32.6276446" rx="7.06863141" ry="1"></ellipse>
            <g id="资源-1" fill="#FFFFFF">
                <path d="M19.6678541,21.7161933 L19.6672639,21.9543223 C19.6672639,22.5490603 19.2172755,23.0386978 18.6391942,23.1013396 L18.5134763,23.1081098 L18.484732,23.1081098 C18.4147424,23.1081098 18.3462082,23.101878 18.2796543,23.0899389 C18.7880669,22.6779792 19.2526977,22.2178374 19.6678541,21.7161933 Z M1.16918352,1.8626439 C1.81410596,1.86375947 2.33631943,2.38045389 2.33631943,3.01744267 L2.33638005,13.4272565 C2.1854017,14.1059187 2.10582569,14.8110114 2.10582569,15.5344613 C2.10582569,15.6836896 2.10921154,15.8321367 2.11591149,15.979732 C2.0814428,16.0314727 2.04003611,16.0798126 1.99447324,16.1248149 C1.80686143,16.3101185 1.56195442,16.4258237 1.30087849,16.4551007 L1.16918352,16.4624588 C0.859285209,16.4629923 0.561893316,16.3417765 0.342569814,16.1255308 C0.123246313,15.9092851 0,15.615765 0,15.3096789 L0,3.01744267 C0,2.42218343 0.455992947,1.93211673 1.04178809,1.8694201 L1.16918352,1.8626439 Z M22.8308165,1.34085737 C23.1407148,1.34032392 23.4381068,1.4615397 23.6574303,1.67778543 C23.8767537,1.89403116 24,2.18755124 24,2.49363727 L24,14.7211563 C24,15.0272423 23.8767537,15.3207624 23.6574303,15.5370081 C23.4694387,15.7223616 23.2240907,15.8378972 22.9626732,15.8667887 L22.8308165,15.8739362 C22.4482656,15.8739362 22.1087015,15.6921506 21.8958415,15.4112679 L21.8979936,15.5344613 C21.8979936,14.8042734 21.8169284,14.0927862 21.6632022,13.4083007 L21.6636807,2.49363727 C21.6636807,1.89942053 22.118875,1.41020899 22.7036442,1.34762175 L22.8308165,1.34085737 Z M5.51526799,0 C6.15248727,-2.22044605e-16 6.66905556,0.516568288 6.66905556,1.15378756 L6.6691029,7.29930617 C5.78367166,7.85982162 4.99458874,8.55583048 4.3318468,9.35770909 L4.33273612,1.15378756 C4.33273612,0.516568288 4.84930441,4.4408921e-16 5.48652369,4.4408921e-16 L5.51526799,0 Z M18.5134763,3.32282729 C19.1506956,3.32282729 19.6672639,3.83939557 19.6672639,4.47661485 L19.6678541,9.35272936 C19.0049599,8.55173742 18.2159281,7.85655816 17.3307009,7.29676554 L17.3309445,4.47661485 C17.3309445,3.83939557 17.8475128,3.32282729 18.484732,3.32282729 L18.5134763,3.32282729 Z M9.82851294,2.29341466 C10.1384117,2.29341466 10.435588,2.4151482 10.6545275,2.63177332 C10.8734668,2.84839843 10.9961925,3.14213143 10.9956525,3.44821699 L10.9953987,5.81006424 C10.1835463,5.89106301 9.40066922,6.06898304 8.65881071,6.33192934 L8.65931512,3.4502394 C8.65823908,3.1434531 8.78100472,2.848892 9.0004467,2.63177028 C9.18853984,2.44566595 9.43436009,2.32961561 9.69635813,2.3005943 L9.82851294,2.29341466 Z M14.1807402,0.980871111 C14.8179595,0.980871111 15.3345278,1.4974394 15.3345278,2.13465868 L15.3350321,6.32839923 C14.5930885,6.066315 13.8102114,5.88924563 12.9984305,5.80907255 L12.9982084,2.13465868 C12.9982084,1.4974394 13.5147767,0.980871111 14.1519959,0.980871111 L14.1807402,0.980871111 Z" id="形状结合"></path>
                <path d="M12.5825442,4.11561383 C22.9454825,4.4149312 27.8187868,16.9559245 20.4883542,24.196169 L12.0010238,32.5811001 L3.51164577,24.196169 C-3.8187868,16.9559245 1.05451754,4.4149312 11.4174559,4.11561383 C11.8065012,4.10550176 12.1934989,4.10550176 12.5825442,4.11561383 Z M12.0019097,5.76013129 C6.5364534,5.76013129 2.10582569,10.1362479 2.10582569,15.5344613 C2.10582569,20.9326748 6.5364534,25.3087914 12.0019097,25.3087914 C17.4673659,25.3087914 21.8979936,20.9326748 21.8979936,15.5344613 C21.8979936,10.1362479 17.4673659,5.76013129 12.0019097,5.76013129 Z" id="形状结合"></path>
                <path d="M8.16407525,21.7923402 L8.16407525,15.6385894 L8.16407525,15.6385894 L7.0364186,15.6385894 C6.73748504,15.6385894 6.4951515,15.3992374 6.4951515,15.1039816 C6.4951515,14.8087259 6.73748504,14.5693739 7.0364186,14.5693739 L8.16407525,14.5693739 L8.16407525,14.5693739 L8.16407525,13.604472 L7.0364186,13.604472 C6.73748504,13.604472 6.4951515,13.36512 6.4951515,13.0698643 C6.4951515,12.7746086 6.73748504,12.5352566 7.0364186,12.5352566 L8.16407525,12.5352566 L8.16407525,12.5352566 L8.16407525,11.2542042 C8.16407525,10.4830309 8.79702206,9.85787133 9.5778015,9.85787133 L11.908564,9.85787133 L11.908564,9.85787133 C13.2866263,9.85787133 14.2862862,10.0549083 14.9075437,10.4489823 C15.5288013,10.8430563 15.9354426,11.5384811 16.1274678,12.5352566 L16.9755585,12.5352566 C17.274492,12.5352566 17.5168255,12.7746086 17.5168255,13.0698643 C17.5168255,13.36512 17.274492,13.604472 16.9755585,13.604472 L16.1528828,13.604472 L16.1528828,13.604472 C16.1528828,13.7493522 16.1161722,14.0709862 16.0427508,14.5693739 L16.9755585,14.5693739 C17.274492,14.5693739 17.5168255,14.8087259 17.5168255,15.1039816 C17.5168255,15.3992374 17.274492,15.6385894 16.9755585,15.6385894 L15.7885999,15.6385894 L15.7885999,15.6385894 C14.9583739,17.429308 13.4221734,18.3246674 11.1799983,18.3246674 L10.6716967,18.3246674 L10.6716967,21.7923402 C10.6716967,22.3064558 10.2497321,22.7232288 9.72921253,22.7232288 L9.10655943,22.7232288 C8.58603979,22.7232288 8.16407525,22.3064558 8.16407525,21.7923402 Z M10.670613,14.6611241 L13.7258124,14.6611241 C13.776451,14.3758217 13.8017703,14.1232101 13.8017703,13.9032895 L13.7933305,13.6714812 L10.670613,13.6714812 L10.670613,14.6611241 Z M13.4163014,12.4183926 C13.2029189,12.0011073 12.9474213,11.7318455 12.6498087,11.6106072 C12.3521962,11.4893689 11.790663,11.4287497 10.9652094,11.4287497 L10.5356366,11.4287497 L10.5356366,12.4183926 L13.4163014,12.4183926 Z M10.6820545,16.5304962 L11.0407144,16.5304962 C12.0654568,16.5304962 12.8226276,16.2006152 13.3122268,15.5408533 L10.6820545,15.5408533 L10.6820545,16.5304962 Z" id="形状备份"></path>
            </g>
        </g>
        <g id="Vplus备份" transform="translate(31, 4)" fill-rule="nonzero" font-family="Helvetica" font-size="20.8541667" font-weight="normal" stroke-width="0.78203125">
            <text id="VPLUS" stroke="#FFF29B" fill="#27A91B">
                <tspan x="0" y="20">VPLUS</tspan>
            </text>
            <text id="VPLUS" stroke="#FFFFFF" fill="#FFFFFF">
                <tspan x="0" y="20">VPLUS</tspan>
            </text>
        </g>
    </g>
</svg>